<mxfile host="app.diagrams.net" modified="2021-10-08T01:04:19.364Z" agent="5.0 (Windows NT 10.0; Win64; x64) AppleWebKit/537.36 (KHTML, like Gecko) Chrome/93.0.4577.82 Safari/537.36" etag="Mu-q3B6_It1jYhf8dHoY" version="15.4.3" type="github">
  <diagram id="jgIhZ20_9FRMTXtboucn" name="Page-1">
    <mxGraphModel dx="593" dy="312" grid="1" gridSize="10" guides="1" tooltips="1" connect="1" arrows="1" fold="1" page="1" pageScale="1" pageWidth="850" pageHeight="1100" math="0" shadow="0">
      <root>
        <mxCell id="0" />
        <mxCell id="1" parent="0" />
        <mxCell id="jLi9anxK4bxNDrah6jsY-2" value="" style="rounded=0;whiteSpace=wrap;html=1;rotation=-90;" vertex="1" parent="1">
          <mxGeometry x="285" y="50" width="160" height="180" as="geometry" />
        </mxCell>
        <mxCell id="jLi9anxK4bxNDrah6jsY-3" value="Actor" style="shape=umlActor;verticalLabelPosition=bottom;verticalAlign=top;html=1;outlineConnect=0;" vertex="1" parent="1">
          <mxGeometry x="160" y="100" width="30" height="60" as="geometry" />
        </mxCell>
        <mxCell id="jLi9anxK4bxNDrah6jsY-4" value="Progress Tracking" style="text;html=1;strokeColor=none;fillColor=none;align=center;verticalAlign=middle;whiteSpace=wrap;rounded=0;" vertex="1" parent="1">
          <mxGeometry x="335" y="20" width="60" height="30" as="geometry" />
        </mxCell>
        <mxCell id="jLi9anxK4bxNDrah6jsY-6" value="Actor" style="shape=umlActor;verticalLabelPosition=bottom;verticalAlign=top;html=1;outlineConnect=0;" vertex="1" parent="1">
          <mxGeometry x="520" y="100" width="30" height="60" as="geometry" />
        </mxCell>
        <mxCell id="jLi9anxK4bxNDrah6jsY-12" value="Player" style="text;strokeColor=none;fillColor=none;align=left;verticalAlign=middle;spacingLeft=4;spacingRight=4;overflow=hidden;points=[[0,0.5],[1,0.5]];portConstraint=eastwest;rotatable=0;" vertex="1" parent="1">
          <mxGeometry x="160" y="60" width="80" height="30" as="geometry" />
        </mxCell>
        <mxCell id="jLi9anxK4bxNDrah6jsY-14" value="System" style="text;html=1;strokeColor=none;fillColor=none;align=center;verticalAlign=middle;whiteSpace=wrap;rounded=0;" vertex="1" parent="1">
          <mxGeometry x="505" y="65" width="60" height="30" as="geometry" />
        </mxCell>
        <mxCell id="jLi9anxK4bxNDrah6jsY-15" value="Save Game" style="ellipse;whiteSpace=wrap;html=1;" vertex="1" parent="1">
          <mxGeometry x="302.5" y="85" width="125" height="30" as="geometry" />
        </mxCell>
        <mxCell id="jLi9anxK4bxNDrah6jsY-16" value="View History" style="ellipse;whiteSpace=wrap;html=1;" vertex="1" parent="1">
          <mxGeometry x="302.5" y="165" width="125" height="30" as="geometry" />
        </mxCell>
        <mxCell id="jLi9anxK4bxNDrah6jsY-17" value="Load Game" style="ellipse;whiteSpace=wrap;html=1;" vertex="1" parent="1">
          <mxGeometry x="302.5" y="125" width="125" height="30" as="geometry" />
        </mxCell>
        <mxCell id="jLi9anxK4bxNDrah6jsY-21" value="" style="endArrow=none;html=1;rounded=0;edgeStyle=orthogonalEdgeStyle;" edge="1" parent="1" source="jLi9anxK4bxNDrah6jsY-3" target="jLi9anxK4bxNDrah6jsY-15">
          <mxGeometry width="50" height="50" relative="1" as="geometry">
            <mxPoint x="190" y="115" as="sourcePoint" />
            <mxPoint x="300" y="100" as="targetPoint" />
          </mxGeometry>
        </mxCell>
        <mxCell id="jLi9anxK4bxNDrah6jsY-22" value="" style="endArrow=none;html=1;rounded=0;edgeStyle=orthogonalEdgeStyle;entryX=0;entryY=0.5;entryDx=0;entryDy=0;" edge="1" parent="1" source="jLi9anxK4bxNDrah6jsY-3" target="jLi9anxK4bxNDrah6jsY-17">
          <mxGeometry width="50" height="50" relative="1" as="geometry">
            <mxPoint x="210" y="140" as="sourcePoint" />
            <mxPoint x="240" y="85" as="targetPoint" />
            <Array as="points">
              <mxPoint x="240" y="135" />
              <mxPoint x="240" y="140" />
            </Array>
          </mxGeometry>
        </mxCell>
        <mxCell id="jLi9anxK4bxNDrah6jsY-26" value="" style="endArrow=none;html=1;rounded=0;edgeStyle=orthogonalEdgeStyle;entryX=0;entryY=0.5;entryDx=0;entryDy=0;" edge="1" parent="1" target="jLi9anxK4bxNDrah6jsY-16">
          <mxGeometry width="50" height="50" relative="1" as="geometry">
            <mxPoint x="190" y="140" as="sourcePoint" />
            <mxPoint x="450" y="210" as="targetPoint" />
            <Array as="points">
              <mxPoint x="230" y="140" />
              <mxPoint x="230" y="150" />
              <mxPoint x="246" y="150" />
              <mxPoint x="246" y="180" />
            </Array>
          </mxGeometry>
        </mxCell>
        <mxCell id="jLi9anxK4bxNDrah6jsY-27" value="" style="endArrow=none;html=1;rounded=0;edgeStyle=orthogonalEdgeStyle;entryX=0.25;entryY=0.1;entryDx=0;entryDy=0;entryPerimeter=0;exitX=1;exitY=0.5;exitDx=0;exitDy=0;" edge="1" parent="1" source="jLi9anxK4bxNDrah6jsY-15" target="jLi9anxK4bxNDrah6jsY-6">
          <mxGeometry width="50" height="50" relative="1" as="geometry">
            <mxPoint x="440" y="102" as="sourcePoint" />
            <mxPoint x="475" y="50" as="targetPoint" />
          </mxGeometry>
        </mxCell>
        <mxCell id="jLi9anxK4bxNDrah6jsY-28" value="" style="endArrow=none;html=1;rounded=0;edgeStyle=orthogonalEdgeStyle;entryX=0.5;entryY=0.5;entryDx=0;entryDy=0;entryPerimeter=0;" edge="1" parent="1" target="jLi9anxK4bxNDrah6jsY-6">
          <mxGeometry width="50" height="50" relative="1" as="geometry">
            <mxPoint x="427.5" y="140" as="sourcePoint" />
            <mxPoint x="522.5" y="160" as="targetPoint" />
          </mxGeometry>
        </mxCell>
      </root>
    </mxGraphModel>
  </diagram>
</mxfile>
